<?xml version="1.0" standalone="no"?>
<!DOCTYPE svg PUBLIC "-//W3C//DTD SVG 20010904//EN"
 "http://www.w3.org/TR/2001/REC-SVG-20010904/DTD/svg10.dtd">
<svg version="1.0" xmlns="http://www.w3.org/2000/svg"
 width="512.000000pt" height="512.000000pt" viewBox="0 0 512.000000 512.000000"
 preserveAspectRatio="xMidYMid meet">

<g transform="translate(0.000000,512.000000) scale(0.100000,-0.100000)"
fill="#000000" stroke="none">
<path d="M1013 4116 l-28 -24 0 -850 0 -850 24 -26 c33 -35 92 -36 126 -1 l25
24 0 786 0 785 1228 -2 1227 -3 57 -23 c119 -48 223 -153 269 -269 49 -126 32
-302 -39 -413 -63 -98 -147 -162 -268 -204 -243 -84 -1955 -672 -2244 -771
-86 -29 -175 -62 -199 -75 -61 -31 -133 -106 -164 -171 -44 -93 -48 -152 -45
-591 l3 -408 28 -27 27 -28 1098 -3 c765 -2 1127 1 1197 8 106 12 229 47 310
87 129 65 266 183 345 297 47 70 107 202 132 291 32 117 32 336 0 455 -64 238
-235 459 -442 569 -73 39 -103 39 -142 1 -26 -26 -30 -36 -25 -66 8 -47 18
-58 91 -96 39 -21 94 -65 151 -123 104 -104 150 -182 191 -324 24 -84 26 -104
22 -214 -4 -99 -10 -137 -32 -202 -70 -204 -228 -372 -426 -452 -133 -53 -126
-53 -1281 -53 l-1069 0 0 363 c0 224 4 377 11 400 12 43 68 111 109 132 26 13
232 85 1740 601 805 276 775 265 862 327 270 194 347 566 176 855 -42 72 -148
178 -220 220 -31 18 -89 45 -130 60 l-73 27 -1297 3 -1296 2 -29 -24z"/>
<path d="M1903 3562 c-255 -91 -325 -425 -127 -612 80 -76 128 -94 249 -95 91
0 106 3 159 29 76 37 140 101 174 174 24 50 27 70 27 157 0 87 -3 107 -27 157
-34 73 -104 143 -176 176 -76 35 -203 41 -279 14z m207 -177 c53 -27 110 -112
110 -162 0 -65 -52 -148 -111 -179 -37 -19 -123 -18 -165 2 -47 22 -92 79
-102 129 -32 154 129 280 268 210z"/>
<path d="M2845 2249 c-303 -98 -342 -509 -62 -669 145 -83 329 -52 446 75 67
74 94 145 94 251 0 66 -5 91 -26 137 -36 78 -70 120 -130 160 -100 67 -211 83
-322 46z m182 -170 c64 -24 123 -109 123 -179 0 -72 -51 -145 -122 -175 -146
-60 -303 93 -247 242 14 37 66 92 104 109 36 16 104 18 142 3z"/>
</g>
</svg>
